<svg xmlns="http://www.w3.org/2000/svg" width="1200" height="1800" viewBox="0 0 1200 1800" font-family="Helvetica, Arial, sans-serif">
<rect x="0.0" y="0.0" width="1200.0" height="1800.0" rx="0" fill="#F5F0E6"/>
<rect x="0.0" y="0.0" width="1200.0" height="620.0" rx="0" fill="#0C1E33"/>
<rect x="90.0" y="90.0" width="52.0" height="52.0" rx="6" fill="#12B3A6"/>
<rect x="160.0" y="90.0" width="52.0" height="52.0" rx="6" fill="#F5A623"/>
<rect x="230.0" y="90.0" width="52.0" height="52.0" rx="6" fill="#E4572E"/>
<text x="90.0" y="300.0" font-size="92" fill="#F5F0E6" font-weight="800" text-anchor="start">THE FRONTIER</text>
<text x="90.0" y="404.0" font-size="92" fill="#F5F0E6" font-weight="800" text-anchor="start">AI GOVERNANCE</text>
<text x="90.0" y="508.0" font-size="92" fill="#F5F0E6" font-weight="800" text-anchor="start">HANDBOOK</text>
<text x="92.0" y="560.0" font-size="33" fill="#12B3A6" font-weight="600" text-anchor="start">Evidence-bound governance for frontier AI systems</text>
<circle cx="930.0" cy="1075.0" r="24.8" fill="#F5A623"/>
<circle cx="925.9" cy="1126.6" r="24.8" fill="#F5A623"/>
<circle cx="913.8" cy="1177.0" r="24.8" fill="#F5A623"/>
<circle cx="894.0" cy="1224.8" r="24.8" fill="#F5A623"/>
<circle cx="867.0" cy="1269.0" r="24.8" fill="#F5A623"/>
<circle cx="833.3" cy="1308.3" r="24.8" fill="#F5A623"/>
<circle cx="794.0" cy="1342.0" r="24.8" fill="#F5A623"/>
<circle cx="749.8" cy="1369.0" r="24.8" fill="#F5A623"/>
<circle cx="702.0" cy="1388.8" r="24.8" fill="#F5A623"/>
<circle cx="651.6" cy="1400.9" r="24.8" fill="#F5A623"/>
<circle cx="600.0" cy="1405.0" r="24.8" fill="#F5A623"/>
<circle cx="548.4" cy="1400.9" r="24.8" fill="#F5A623"/>
<circle cx="498.0" cy="1388.8" r="24.8" fill="#F5A623"/>
<circle cx="450.2" cy="1369.0" r="24.8" fill="#F5A623"/>
<circle cx="406.0" cy="1342.0" r="24.8" fill="#F5A623"/>
<circle cx="366.7" cy="1308.3" r="24.8" fill="#F5A623"/>
<circle cx="333.0" cy="1269.0" r="24.8" fill="#F5A623"/>
<circle cx="306.0" cy="1224.8" r="24.8" fill="#F5A623"/>
<circle cx="286.2" cy="1177.0" r="24.8" fill="#F5A623"/>
<circle cx="274.1" cy="1126.6" r="24.8" fill="#F5A623"/>
<circle cx="270.0" cy="1075.0" r="24.8" fill="#F5A623"/>
<circle cx="274.1" cy="1023.4" r="24.8" fill="#F5A623"/>
<circle cx="286.2" cy="973.0" r="24.8" fill="#F5A623"/>
<circle cx="306.0" cy="925.2" r="24.8" fill="#F5A623"/>
<circle cx="333.0" cy="881.0" r="24.8" fill="#F5A623"/>
<circle cx="366.7" cy="841.7" r="24.8" fill="#F5A623"/>
<circle cx="406.0" cy="808.0" r="24.8" fill="#F5A623"/>
<circle cx="450.2" cy="781.0" r="24.8" fill="#F5A623"/>
<circle cx="498.0" cy="761.2" r="24.8" fill="#F5A623"/>
<circle cx="548.4" cy="749.1" r="24.8" fill="#F5A623"/>
<circle cx="600.0" cy="745.0" r="24.8" fill="#F5A623"/>
<circle cx="651.6" cy="749.1" r="24.8" fill="#F5A623"/>
<circle cx="702.0" cy="761.2" r="24.8" fill="#F5A623"/>
<circle cx="749.8" cy="781.0" r="24.8" fill="#F5A623"/>
<circle cx="794.0" cy="808.0" r="24.8" fill="#F5A623"/>
<circle cx="833.3" cy="841.7" r="24.8" fill="#F5A623"/>
<circle cx="867.0" cy="881.0" r="24.8" fill="#F5A623"/>
<circle cx="894.0" cy="925.2" r="24.8" fill="#F5A623"/>
<circle cx="913.8" cy="973.0" r="24.8" fill="#F5A623"/>
<circle cx="925.9" cy="1023.4" r="24.8" fill="#F5A623"/>
<circle cx="600.0" cy="1075.0" r="330.0" fill="#F5A623"/>
<line x1="864.0" y1="1075.0" x2="897.0" y2="1075.0" stroke="#0C1E33" stroke-width="5.9399999999999995" stroke-linecap="butt"/>
<line x1="862.6" y1="1102.6" x2="895.4" y2="1106.0" stroke="#0C1E33" stroke-width="5.9399999999999995" stroke-linecap="butt"/>
<line x1="858.2" y1="1129.9" x2="890.5" y2="1136.7" stroke="#0C1E33" stroke-width="5.9399999999999995" stroke-linecap="butt"/>
<line x1="851.1" y1="1156.6" x2="882.5" y2="1166.8" stroke="#0C1E33" stroke-width="5.9399999999999995" stroke-linecap="butt"/>
<line x1="841.2" y1="1182.4" x2="871.3" y2="1195.8" stroke="#0C1E33" stroke-width="5.9399999999999995" stroke-linecap="butt"/>
<line x1="828.6" y1="1207.0" x2="857.2" y2="1223.5" stroke="#0C1E33" stroke-width="5.9399999999999995" stroke-linecap="butt"/>
<line x1="813.6" y1="1230.2" x2="840.3" y2="1249.6" stroke="#0C1E33" stroke-width="5.9399999999999995" stroke-linecap="butt"/>
<line x1="796.2" y1="1251.7" x2="820.7" y2="1273.7" stroke="#0C1E33" stroke-width="5.9399999999999995" stroke-linecap="butt"/>
<line x1="776.7" y1="1271.2" x2="798.7" y2="1295.7" stroke="#0C1E33" stroke-width="5.9399999999999995" stroke-linecap="butt"/>
<line x1="755.2" y1="1288.6" x2="774.6" y2="1315.3" stroke="#0C1E33" stroke-width="5.9399999999999995" stroke-linecap="butt"/>
<line x1="732.0" y1="1303.6" x2="748.5" y2="1332.2" stroke="#0C1E33" stroke-width="5.9399999999999995" stroke-linecap="butt"/>
<line x1="707.4" y1="1316.2" x2="720.8" y2="1346.3" stroke="#0C1E33" stroke-width="5.9399999999999995" stroke-linecap="butt"/>
<line x1="681.6" y1="1326.1" x2="691.8" y2="1357.5" stroke="#0C1E33" stroke-width="5.9399999999999995" stroke-linecap="butt"/>
<line x1="654.9" y1="1333.2" x2="661.7" y2="1365.5" stroke="#0C1E33" stroke-width="5.9399999999999995" stroke-linecap="butt"/>
<line x1="627.6" y1="1337.6" x2="631.0" y2="1370.4" stroke="#0C1E33" stroke-width="5.9399999999999995" stroke-linecap="butt"/>
<line x1="600.0" y1="1339.0" x2="600.0" y2="1372.0" stroke="#0C1E33" stroke-width="5.9399999999999995" stroke-linecap="butt"/>
<line x1="572.4" y1="1337.6" x2="569.0" y2="1370.4" stroke="#0C1E33" stroke-width="5.9399999999999995" stroke-linecap="butt"/>
<line x1="545.1" y1="1333.2" x2="538.3" y2="1365.5" stroke="#0C1E33" stroke-width="5.9399999999999995" stroke-linecap="butt"/>
<line x1="518.4" y1="1326.1" x2="508.2" y2="1357.5" stroke="#0C1E33" stroke-width="5.9399999999999995" stroke-linecap="butt"/>
<line x1="492.6" y1="1316.2" x2="479.2" y2="1346.3" stroke="#0C1E33" stroke-width="5.9399999999999995" stroke-linecap="butt"/>
<line x1="468.0" y1="1303.6" x2="451.5" y2="1332.2" stroke="#0C1E33" stroke-width="5.9399999999999995" stroke-linecap="butt"/>
<line x1="444.8" y1="1288.6" x2="425.4" y2="1315.3" stroke="#0C1E33" stroke-width="5.9399999999999995" stroke-linecap="butt"/>
<line x1="423.3" y1="1271.2" x2="401.3" y2="1295.7" stroke="#0C1E33" stroke-width="5.9399999999999995" stroke-linecap="butt"/>
<line x1="403.8" y1="1251.7" x2="379.3" y2="1273.7" stroke="#0C1E33" stroke-width="5.9399999999999995" stroke-linecap="butt"/>
<line x1="386.4" y1="1230.2" x2="359.7" y2="1249.6" stroke="#0C1E33" stroke-width="5.9399999999999995" stroke-linecap="butt"/>
<line x1="371.4" y1="1207.0" x2="342.8" y2="1223.5" stroke="#0C1E33" stroke-width="5.9399999999999995" stroke-linecap="butt"/>
<line x1="358.8" y1="1182.4" x2="328.7" y2="1195.8" stroke="#0C1E33" stroke-width="5.9399999999999995" stroke-linecap="butt"/>
<line x1="348.9" y1="1156.6" x2="317.5" y2="1166.8" stroke="#0C1E33" stroke-width="5.9399999999999995" stroke-linecap="butt"/>
<line x1="341.8" y1="1129.9" x2="309.5" y2="1136.7" stroke="#0C1E33" stroke-width="5.9399999999999995" stroke-linecap="butt"/>
<line x1="337.4" y1="1102.6" x2="304.6" y2="1106.0" stroke="#0C1E33" stroke-width="5.9399999999999995" stroke-linecap="butt"/>
<line x1="336.0" y1="1075.0" x2="303.0" y2="1075.0" stroke="#0C1E33" stroke-width="5.9399999999999995" stroke-linecap="butt"/>
<line x1="337.4" y1="1047.4" x2="304.6" y2="1044.0" stroke="#0C1E33" stroke-width="5.9399999999999995" stroke-linecap="butt"/>
<line x1="341.8" y1="1020.1" x2="309.5" y2="1013.3" stroke="#0C1E33" stroke-width="5.9399999999999995" stroke-linecap="butt"/>
<line x1="348.9" y1="993.4" x2="317.5" y2="983.2" stroke="#0C1E33" stroke-width="5.9399999999999995" stroke-linecap="butt"/>
<line x1="358.8" y1="967.6" x2="328.7" y2="954.2" stroke="#0C1E33" stroke-width="5.9399999999999995" stroke-linecap="butt"/>
<line x1="371.4" y1="943.0" x2="342.8" y2="926.5" stroke="#0C1E33" stroke-width="5.9399999999999995" stroke-linecap="butt"/>
<line x1="386.4" y1="919.8" x2="359.7" y2="900.4" stroke="#0C1E33" stroke-width="5.9399999999999995" stroke-linecap="butt"/>
<line x1="403.8" y1="898.3" x2="379.3" y2="876.3" stroke="#0C1E33" stroke-width="5.9399999999999995" stroke-linecap="butt"/>
<line x1="423.3" y1="878.8" x2="401.3" y2="854.3" stroke="#0C1E33" stroke-width="5.9399999999999995" stroke-linecap="butt"/>
<line x1="444.8" y1="861.4" x2="425.4" y2="834.7" stroke="#0C1E33" stroke-width="5.9399999999999995" stroke-linecap="butt"/>
<line x1="468.0" y1="846.4" x2="451.5" y2="817.8" stroke="#0C1E33" stroke-width="5.9399999999999995" stroke-linecap="butt"/>
<line x1="492.6" y1="833.8" x2="479.2" y2="803.7" stroke="#0C1E33" stroke-width="5.9399999999999995" stroke-linecap="butt"/>
<line x1="518.4" y1="823.9" x2="508.2" y2="792.5" stroke="#0C1E33" stroke-width="5.9399999999999995" stroke-linecap="butt"/>
<line x1="545.1" y1="816.8" x2="538.3" y2="784.5" stroke="#0C1E33" stroke-width="5.9399999999999995" stroke-linecap="butt"/>
<line x1="572.4" y1="812.4" x2="569.0" y2="779.6" stroke="#0C1E33" stroke-width="5.9399999999999995" stroke-linecap="butt"/>
<line x1="600.0" y1="811.0" x2="600.0" y2="778.0" stroke="#0C1E33" stroke-width="5.9399999999999995" stroke-linecap="butt"/>
<line x1="627.6" y1="812.4" x2="631.0" y2="779.6" stroke="#0C1E33" stroke-width="5.9399999999999995" stroke-linecap="butt"/>
<line x1="654.9" y1="816.8" x2="661.7" y2="784.5" stroke="#0C1E33" stroke-width="5.9399999999999995" stroke-linecap="butt"/>
<line x1="681.6" y1="823.9" x2="691.8" y2="792.5" stroke="#0C1E33" stroke-width="5.9399999999999995" stroke-linecap="butt"/>
<line x1="707.4" y1="833.8" x2="720.8" y2="803.7" stroke="#0C1E33" stroke-width="5.9399999999999995" stroke-linecap="butt"/>
<line x1="732.0" y1="846.4" x2="748.5" y2="817.8" stroke="#0C1E33" stroke-width="5.9399999999999995" stroke-linecap="butt"/>
<line x1="755.2" y1="861.4" x2="774.6" y2="834.7" stroke="#0C1E33" stroke-width="5.9399999999999995" stroke-linecap="butt"/>
<line x1="776.7" y1="878.8" x2="798.7" y2="854.3" stroke="#0C1E33" stroke-width="5.9399999999999995" stroke-linecap="butt"/>
<line x1="796.2" y1="898.3" x2="820.7" y2="876.3" stroke="#0C1E33" stroke-width="5.9399999999999995" stroke-linecap="butt"/>
<line x1="813.6" y1="919.8" x2="840.3" y2="900.4" stroke="#0C1E33" stroke-width="5.9399999999999995" stroke-linecap="butt"/>
<line x1="828.6" y1="943.0" x2="857.2" y2="926.5" stroke="#0C1E33" stroke-width="5.9399999999999995" stroke-linecap="butt"/>
<line x1="841.2" y1="967.6" x2="871.3" y2="954.2" stroke="#0C1E33" stroke-width="5.9399999999999995" stroke-linecap="butt"/>
<line x1="851.1" y1="993.4" x2="882.5" y2="983.2" stroke="#0C1E33" stroke-width="5.9399999999999995" stroke-linecap="butt"/>
<line x1="858.2" y1="1020.1" x2="890.5" y2="1013.3" stroke="#0C1E33" stroke-width="5.9399999999999995" stroke-linecap="butt"/>
<line x1="862.6" y1="1047.4" x2="895.4" y2="1044.0" stroke="#0C1E33" stroke-width="5.9399999999999995" stroke-linecap="butt"/>
<circle cx="600.0" cy="1075.0" r="257.4" fill="#0C1E33"/>
<circle cx="600.0" cy="1075.0" r="231.0" fill="none" stroke="#12B3A6" stroke-width="6.6000000000000005"/>
<polygon points="600.0,1273.0 428.5,1174.0 428.5,976.0 600.0,877.0 771.5,976.0 771.5,1174.0" fill="none" stroke="#F5A623" stroke-width="6.6000000000000005" stroke-linejoin="round"/>
<rect x="514.2" y="1141.0" width="42.2" height="33.0" rx="4.95" fill="#12B3A6"/>
<rect x="580.2" y="1108.0" width="42.2" height="66.0" rx="4.95" fill="#2F9E44"/>
<rect x="646.2" y="1075.0" width="42.2" height="99.0" rx="4.95" fill="#F5A623"/>
<path d="M 501.0 1042.0 L 575.2 1111.3 L 699.0 962.8" fill="none" stroke="#F5F0E6" stroke-width="29.7" stroke-linecap="round" stroke-linejoin="round"/>
<text x="600.0" y="1500.0" font-size="40" fill="#0C1E33" font-weight="800" text-anchor="middle" letter-spacing="8">VERIFIED CLAIM</text>
<rect x="90.0" y="1600.0" width="380.0" height="8.0" rx="0" fill="#12B3A6"/>
<text x="90.0" y="1680.0" font-size="46" fill="#0C1E33" font-weight="800" text-anchor="start" letter-spacing="2">STIAN SKOGBROTT</text>
<text x="90.0" y="1730.0" font-size="30" fill="#4A5A6A" font-weight="600" text-anchor="start">Claim-Oriented Programming · VeriClaim</text>
</svg>
