<svg xmlns="http://www.w3.org/2000/svg" width="1600" height="620" viewBox="0 0 1600 620" font-family="Helvetica, Arial, sans-serif">
<rect x="6.0" y="6.0" width="1588.0" height="608.0" rx="22" fill="#F8F3E8" stroke="#DED4C0" stroke-width="2"/>
<rect x="60.0" y="58.0" width="6.0" height="42.0" rx="3" fill="#B4832B"/>
<text x="84.0" y="92.0" font-size="40" fill="#182530" font-weight="800" text-anchor="start">The provenance chain</text>
<line x1="60.0" y1="120.0" x2="1540.0" y2="120.0" stroke="#DED4C0" stroke-width="1.5" stroke-linecap="butt"/>
<rect x="118.0" y="276.0" width="232.0" height="120.0" rx="14" fill="#B4832B"/>
<rect x="138.0" y="276.0" width="192.0" height="4.0" rx="0" fill="#182530"/>
<text x="234.0" y="332.0" font-size="33" fill="#FFFFFF" font-weight="800" text-anchor="middle">Artifact</text>
<text x="234.0" y="368.0" font-size="20" fill="#FFFFFF" font-weight="500" text-anchor="middle">the number</text>
<rect x="414.0" y="276.0" width="232.0" height="120.0" rx="14" fill="#182530"/>
<rect x="434.0" y="276.0" width="192.0" height="4.0" rx="0" fill="#D8B871"/>
<text x="530.0" y="332.0" font-size="33" fill="#F1EBDD" font-weight="800" text-anchor="middle">SHA-256</text>
<text x="530.0" y="368.0" font-size="20" fill="#F1EBDD" font-weight="500" text-anchor="middle">of its bytes</text>
<rect x="710.0" y="276.0" width="232.0" height="120.0" rx="14" fill="#1C6E62"/>
<rect x="730.0" y="276.0" width="192.0" height="4.0" rx="0" fill="#D8B871"/>
<text x="826.0" y="332.0" font-size="33" fill="#FFFFFF" font-weight="800" text-anchor="middle">Sidecar</text>
<text x="826.0" y="368.0" font-size="20" fill="#FFFFFF" font-weight="500" text-anchor="middle">how it was made</text>
<rect x="1006.0" y="276.0" width="232.0" height="120.0" rx="14" fill="#3D6784"/>
<rect x="1026.0" y="276.0" width="192.0" height="4.0" rx="0" fill="#D8B871"/>
<text x="1122.0" y="332.0" font-size="33" fill="#FFFFFF" font-weight="800" text-anchor="middle">Register</text>
<text x="1122.0" y="368.0" font-size="20" fill="#FFFFFF" font-weight="500" text-anchor="middle">the claim</text>
<rect x="1302.0" y="276.0" width="232.0" height="120.0" rx="14" fill="#6B4E77"/>
<rect x="1322.0" y="276.0" width="192.0" height="4.0" rx="0" fill="#D8B871"/>
<text x="1418.0" y="332.0" font-size="33" fill="#FFFFFF" font-weight="800" text-anchor="middle">Manifest</text>
<text x="1418.0" y="368.0" font-size="20" fill="#FFFFFF" font-weight="500" text-anchor="middle">the sealed set</text>
<line x1="354.0" y1="336.0" x2="410.0" y2="336.0" stroke="#182530" stroke-width="2" stroke-linecap="round"/>
<rect x="369.0" y="323.0" width="26.0" height="26.0" rx="7" fill="#F8F3E8" stroke="#182530" stroke-width="3"/>
<line x1="410.0" y1="336.0" x2="399.8" y2="342.4" stroke="#182530" stroke-width="2" stroke-linecap="round"/>
<line x1="410.0" y1="336.0" x2="399.8" y2="329.6" stroke="#182530" stroke-width="2" stroke-linecap="round"/>
<line x1="650.0" y1="336.0" x2="706.0" y2="336.0" stroke="#182530" stroke-width="2" stroke-linecap="round"/>
<rect x="665.0" y="323.0" width="26.0" height="26.0" rx="7" fill="#F8F3E8" stroke="#182530" stroke-width="3"/>
<line x1="706.0" y1="336.0" x2="695.8" y2="342.4" stroke="#182530" stroke-width="2" stroke-linecap="round"/>
<line x1="706.0" y1="336.0" x2="695.8" y2="329.6" stroke="#182530" stroke-width="2" stroke-linecap="round"/>
<line x1="946.0" y1="336.0" x2="1002.0" y2="336.0" stroke="#182530" stroke-width="2" stroke-linecap="round"/>
<rect x="961.0" y="323.0" width="26.0" height="26.0" rx="7" fill="#F8F3E8" stroke="#182530" stroke-width="3"/>
<line x1="1002.0" y1="336.0" x2="991.8" y2="342.4" stroke="#182530" stroke-width="2" stroke-linecap="round"/>
<line x1="1002.0" y1="336.0" x2="991.8" y2="329.6" stroke="#182530" stroke-width="2" stroke-linecap="round"/>
<line x1="1242.0" y1="336.0" x2="1298.0" y2="336.0" stroke="#182530" stroke-width="2" stroke-linecap="round"/>
<rect x="1257.0" y="323.0" width="26.0" height="26.0" rx="7" fill="#F8F3E8" stroke="#182530" stroke-width="3"/>
<line x1="1298.0" y1="336.0" x2="1287.8" y2="342.4" stroke="#182530" stroke-width="2" stroke-linecap="round"/>
<line x1="1298.0" y1="336.0" x2="1287.8" y2="329.6" stroke="#182530" stroke-width="2" stroke-linecap="round"/>
<text x="84.0" y="576.0" font-size="23" fill="#57636D" font-weight="500" text-anchor="start">Every produced number records how it was made and is checked to still hold: reproduce it, and the bytes must match.</text>
</svg>
