<svg xmlns="http://www.w3.org/2000/svg" width="1400" height="900" viewBox="0 0 1400 900" font-family="Helvetica, Arial, sans-serif">
<rect x="6.0" y="6.0" width="1388.0" height="888.0" rx="22" fill="#F8F3E8" stroke="#DED4C0" stroke-width="2"/>
<rect x="60.0" y="58.0" width="6.0" height="42.0" rx="3" fill="#B4832B"/>
<text x="84.0" y="92.0" font-size="40" fill="#182530" font-weight="800" text-anchor="start">The evidence ladder</text>
<line x1="60.0" y1="120.0" x2="1340.0" y2="120.0" stroke="#DED4C0" stroke-width="1.5" stroke-linecap="butt"/>
<rect x="150.0" y="614.0" width="162.0" height="92.0" rx="9" fill="#57636D"/>
<circle cx="180.0" cy="646.0" r="19.0" fill="#F8F3E8"/>
<text x="180.0" y="653.0" font-size="23" fill="#57636D" font-weight="800" text-anchor="middle">1</text>
<text x="231" y="686" font-size="21" fill="#F8F3E8" font-weight="700" text-anchor="start" transform="rotate(-90 231 686)">theoretical</text>
<line x1="322.0" y1="540.0" x2="322.0" y2="706.0" stroke="#DED4C0" stroke-width="1.5" stroke-linecap="butt"/>
<rect x="322.0" y="540.0" width="162.0" height="166.0" rx="9" fill="#3D6784"/>
<circle cx="352.0" cy="572.0" r="19.0" fill="#F8F3E8"/>
<text x="352.0" y="579.0" font-size="23" fill="#3D6784" font-weight="800" text-anchor="middle">2</text>
<text x="403" y="686" font-size="21" fill="#F8F3E8" font-weight="700" text-anchor="start" transform="rotate(-90 403 686)">measured</text>
<line x1="494.0" y1="466.0" x2="494.0" y2="706.0" stroke="#DED4C0" stroke-width="1.5" stroke-linecap="butt"/>
<rect x="494.0" y="466.0" width="162.0" height="240.0" rx="9" fill="#1C6E62"/>
<circle cx="524.0" cy="498.0" r="19.0" fill="#F8F3E8"/>
<text x="524.0" y="505.0" font-size="23" fill="#1C6E62" font-weight="800" text-anchor="middle">3</text>
<text x="575" y="686" font-size="21" fill="#F8F3E8" font-weight="700" text-anchor="start" transform="rotate(-90 575 686)">benchmarked</text>
<line x1="666.0" y1="392.0" x2="666.0" y2="706.0" stroke="#DED4C0" stroke-width="1.5" stroke-linecap="butt"/>
<rect x="666.0" y="392.0" width="162.0" height="314.0" rx="9" fill="#5C8158"/>
<circle cx="696.0" cy="424.0" r="19.0" fill="#F8F3E8"/>
<text x="696.0" y="431.0" font-size="23" fill="#5C8158" font-weight="800" text-anchor="middle">4</text>
<text x="747" y="686" font-size="21" fill="#F8F3E8" font-weight="700" text-anchor="start" transform="rotate(-90 747 686)">reproduced</text>
<line x1="838.0" y1="318.0" x2="838.0" y2="706.0" stroke="#DED4C0" stroke-width="1.5" stroke-linecap="butt"/>
<rect x="838.0" y="318.0" width="162.0" height="388.0" rx="9" fill="#6B4E77"/>
<circle cx="868.0" cy="350.0" r="19.0" fill="#F8F3E8"/>
<text x="868.0" y="357.0" font-size="23" fill="#6B4E77" font-weight="800" text-anchor="middle">5</text>
<text x="919" y="686" font-size="21" fill="#F8F3E8" font-weight="700" text-anchor="start" transform="rotate(-90 919 686)">machine_checked</text>
<line x1="1010.0" y1="244.0" x2="1010.0" y2="706.0" stroke="#DED4C0" stroke-width="1.5" stroke-linecap="butt"/>
<rect x="1010.0" y="244.0" width="162.0" height="462.0" rx="9" fill="#B4832B"/>
<circle cx="1040.0" cy="276.0" r="19.0" fill="#F8F3E8"/>
<text x="1040.0" y="283.0" font-size="23" fill="#B4832B" font-weight="800" text-anchor="middle">6</text>
<text x="1091" y="686" font-size="21" fill="#F8F3E8" font-weight="700" text-anchor="start" transform="rotate(-90 1091 686)">externally_validated</text>
<line x1="116.0" y1="706.0" x2="1182.0" y2="706.0" stroke="#182530" stroke-width="2" stroke-linecap="butt"/>
<line x1="180.0" y1="250.0" x2="1152.0" y2="250.0" stroke="#B4832B" stroke-width="3" stroke-linecap="round"/>
<line x1="1152.0" y1="250.0" x2="1133.3" y2="261.7" stroke="#B4832B" stroke-width="3" stroke-linecap="round"/>
<line x1="1152.0" y1="250.0" x2="1133.3" y2="238.3" stroke="#B4832B" stroke-width="3" stroke-linecap="round"/>
<text x="180.0" y="230.0" font-size="22" fill="#B4832B" font-weight="700" text-anchor="start">promotion needs new evidence</text>
<text x="144.0" y="752.0" font-size="22" fill="#AE5637" font-weight="700" text-anchor="start">demotion always allowed</text>
<text x="84.0" y="854.0" font-size="24" fill="#57636D" font-weight="500" text-anchor="start">Describe a claim only at the level it has earned. Demotion is always allowed; promotion needs new evidence.</text>
</svg>
