<svg xmlns="http://www.w3.org/2000/svg" width="1200" height="1800" viewBox="0 0 1200 1800" font-family="Helvetica, Arial, sans-serif">
<rect x="0.0" y="0.0" width="1200.0" height="1800.0" rx="0" fill="#F1EBDD"/>
<rect x="46.0" y="46.0" width="1108.0" height="1708.0" rx="0" fill="none" stroke="#182530" stroke-width="2"/>
<rect x="59.0" y="59.0" width="1082.0" height="1682.0" rx="0" fill="none" stroke="#B4832B" stroke-width="1.2"/>
<text x="132.0" y="190.0" font-size="22" fill="#57636D" font-weight="600" text-anchor="start" letter-spacing="3">CLAIM-ORIENTED PROGRAMMING · VERICLAIM</text>
<line x1="132.0" y1="214.0" x2="432.0" y2="214.0" stroke="#B4832B" stroke-width="2" stroke-linecap="butt"/>
<text x="132.0" y="348.0" font-size="82" fill="#182530" font-weight="800" text-anchor="start" letter-spacing="0.5">HÅNDBOK I</text>
<text x="132.0" y="448.0" font-size="82" fill="#182530" font-weight="800" text-anchor="start" letter-spacing="0.5">STYRING AV</text>
<text x="132.0" y="548.0" font-size="82" fill="#182530" font-weight="800" text-anchor="start" letter-spacing="0.5">FRONTIER-AI</text>
<text x="132.0" y="652.0" font-size="28" fill="#1C6E62" font-weight="600" text-anchor="start">Evidensbundet styring for frontier-AI-systemer</text>
<circle cx="900.0" cy="1170.0" r="15.6" fill="#B4832B"/>
<circle cx="897.8" cy="1206.2" r="15.6" fill="#B4832B"/>
<circle cx="891.3" cy="1241.8" r="15.6" fill="#B4832B"/>
<circle cx="880.5" cy="1276.4" r="15.6" fill="#B4832B"/>
<circle cx="865.6" cy="1309.4" r="15.6" fill="#B4832B"/>
<circle cx="846.9" cy="1340.4" r="15.6" fill="#B4832B"/>
<circle cx="824.6" cy="1368.9" r="15.6" fill="#B4832B"/>
<circle cx="798.9" cy="1394.6" r="15.6" fill="#B4832B"/>
<circle cx="770.4" cy="1416.9" r="15.6" fill="#B4832B"/>
<circle cx="739.4" cy="1435.6" r="15.6" fill="#B4832B"/>
<circle cx="706.4" cy="1450.5" r="15.6" fill="#B4832B"/>
<circle cx="671.8" cy="1461.3" r="15.6" fill="#B4832B"/>
<circle cx="636.2" cy="1467.8" r="15.6" fill="#B4832B"/>
<circle cx="600.0" cy="1470.0" r="15.6" fill="#B4832B"/>
<circle cx="563.8" cy="1467.8" r="15.6" fill="#B4832B"/>
<circle cx="528.2" cy="1461.3" r="15.6" fill="#B4832B"/>
<circle cx="493.6" cy="1450.5" r="15.6" fill="#B4832B"/>
<circle cx="460.6" cy="1435.6" r="15.6" fill="#B4832B"/>
<circle cx="429.6" cy="1416.9" r="15.6" fill="#B4832B"/>
<circle cx="401.1" cy="1394.6" r="15.6" fill="#B4832B"/>
<circle cx="375.4" cy="1368.9" r="15.6" fill="#B4832B"/>
<circle cx="353.1" cy="1340.4" r="15.6" fill="#B4832B"/>
<circle cx="334.4" cy="1309.4" r="15.6" fill="#B4832B"/>
<circle cx="319.5" cy="1276.4" r="15.6" fill="#B4832B"/>
<circle cx="308.7" cy="1241.8" r="15.6" fill="#B4832B"/>
<circle cx="302.2" cy="1206.2" r="15.6" fill="#B4832B"/>
<circle cx="300.0" cy="1170.0" r="15.6" fill="#B4832B"/>
<circle cx="302.2" cy="1133.8" r="15.6" fill="#B4832B"/>
<circle cx="308.7" cy="1098.2" r="15.6" fill="#B4832B"/>
<circle cx="319.5" cy="1063.6" r="15.6" fill="#B4832B"/>
<circle cx="334.4" cy="1030.6" r="15.6" fill="#B4832B"/>
<circle cx="353.1" cy="999.6" r="15.6" fill="#B4832B"/>
<circle cx="375.4" cy="971.1" r="15.6" fill="#B4832B"/>
<circle cx="401.1" cy="945.4" r="15.6" fill="#B4832B"/>
<circle cx="429.6" cy="923.1" r="15.6" fill="#B4832B"/>
<circle cx="460.6" cy="904.4" r="15.6" fill="#B4832B"/>
<circle cx="493.6" cy="889.5" r="15.6" fill="#B4832B"/>
<circle cx="528.2" cy="878.7" r="15.6" fill="#B4832B"/>
<circle cx="563.8" cy="872.2" r="15.6" fill="#B4832B"/>
<circle cx="600.0" cy="870.0" r="15.6" fill="#B4832B"/>
<circle cx="636.2" cy="872.2" r="15.6" fill="#B4832B"/>
<circle cx="671.8" cy="878.7" r="15.6" fill="#B4832B"/>
<circle cx="706.4" cy="889.5" r="15.6" fill="#B4832B"/>
<circle cx="739.4" cy="904.4" r="15.6" fill="#B4832B"/>
<circle cx="770.4" cy="923.1" r="15.6" fill="#B4832B"/>
<circle cx="798.9" cy="945.4" r="15.6" fill="#B4832B"/>
<circle cx="824.6" cy="971.1" r="15.6" fill="#B4832B"/>
<circle cx="846.9" cy="999.6" r="15.6" fill="#B4832B"/>
<circle cx="865.6" cy="1030.6" r="15.6" fill="#B4832B"/>
<circle cx="880.5" cy="1063.6" r="15.6" fill="#B4832B"/>
<circle cx="891.3" cy="1098.2" r="15.6" fill="#B4832B"/>
<circle cx="897.8" cy="1133.8" r="15.6" fill="#B4832B"/>
<circle cx="600.0" cy="1170.0" r="295.5" fill="#B4832B"/>
<circle cx="600.0" cy="1170.0" r="270.0" fill="#182530"/>
<line x1="822.0" y1="1170.0" x2="852.0" y2="1170.0" stroke="#D8B871" stroke-width="4.2" stroke-linecap="butt"/>
<line x1="833.1" y1="1190.4" x2="851.0" y2="1192.0" stroke="#D8B871" stroke-width="2.4" stroke-linecap="butt"/>
<line x1="830.4" y1="1210.6" x2="848.2" y2="1213.8" stroke="#D8B871" stroke-width="2.4" stroke-linecap="butt"/>
<line x1="826.0" y1="1230.6" x2="843.4" y2="1235.2" stroke="#D8B871" stroke-width="2.4" stroke-linecap="butt"/>
<line x1="819.9" y1="1250.0" x2="836.8" y2="1256.2" stroke="#D8B871" stroke-width="2.4" stroke-linecap="butt"/>
<line x1="812.1" y1="1268.9" x2="828.4" y2="1276.5" stroke="#D8B871" stroke-width="2.4" stroke-linecap="butt"/>
<line x1="792.3" y1="1281.0" x2="818.2" y2="1296.0" stroke="#D8B871" stroke-width="4.2" stroke-linecap="butt"/>
<line x1="791.7" y1="1304.2" x2="806.4" y2="1314.5" stroke="#D8B871" stroke-width="2.4" stroke-linecap="butt"/>
<line x1="779.3" y1="1320.4" x2="793.0" y2="1332.0" stroke="#D8B871" stroke-width="2.4" stroke-linecap="butt"/>
<line x1="765.5" y1="1335.5" x2="778.2" y2="1348.2" stroke="#D8B871" stroke-width="2.4" stroke-linecap="butt"/>
<line x1="750.4" y1="1349.3" x2="762.0" y2="1363.0" stroke="#D8B871" stroke-width="2.4" stroke-linecap="butt"/>
<line x1="734.2" y1="1361.7" x2="744.5" y2="1376.4" stroke="#D8B871" stroke-width="2.4" stroke-linecap="butt"/>
<line x1="711.0" y1="1362.3" x2="726.0" y2="1388.2" stroke="#D8B871" stroke-width="4.2" stroke-linecap="butt"/>
<line x1="698.9" y1="1382.1" x2="706.5" y2="1398.4" stroke="#D8B871" stroke-width="2.4" stroke-linecap="butt"/>
<line x1="680.0" y1="1389.9" x2="686.2" y2="1406.8" stroke="#D8B871" stroke-width="2.4" stroke-linecap="butt"/>
<line x1="660.6" y1="1396.0" x2="665.2" y2="1413.4" stroke="#D8B871" stroke-width="2.4" stroke-linecap="butt"/>
<line x1="640.6" y1="1400.4" x2="643.8" y2="1418.2" stroke="#D8B871" stroke-width="2.4" stroke-linecap="butt"/>
<line x1="620.4" y1="1403.1" x2="622.0" y2="1421.0" stroke="#D8B871" stroke-width="2.4" stroke-linecap="butt"/>
<line x1="600.0" y1="1392.0" x2="600.0" y2="1422.0" stroke="#D8B871" stroke-width="4.2" stroke-linecap="butt"/>
<line x1="579.6" y1="1403.1" x2="578.0" y2="1421.0" stroke="#D8B871" stroke-width="2.4" stroke-linecap="butt"/>
<line x1="559.4" y1="1400.4" x2="556.2" y2="1418.2" stroke="#D8B871" stroke-width="2.4" stroke-linecap="butt"/>
<line x1="539.4" y1="1396.0" x2="534.8" y2="1413.4" stroke="#D8B871" stroke-width="2.4" stroke-linecap="butt"/>
<line x1="520.0" y1="1389.9" x2="513.8" y2="1406.8" stroke="#D8B871" stroke-width="2.4" stroke-linecap="butt"/>
<line x1="501.1" y1="1382.1" x2="493.5" y2="1398.4" stroke="#D8B871" stroke-width="2.4" stroke-linecap="butt"/>
<line x1="489.0" y1="1362.3" x2="474.0" y2="1388.2" stroke="#D8B871" stroke-width="4.2" stroke-linecap="butt"/>
<line x1="465.8" y1="1361.7" x2="455.5" y2="1376.4" stroke="#D8B871" stroke-width="2.4" stroke-linecap="butt"/>
<line x1="449.6" y1="1349.3" x2="438.0" y2="1363.0" stroke="#D8B871" stroke-width="2.4" stroke-linecap="butt"/>
<line x1="434.5" y1="1335.5" x2="421.8" y2="1348.2" stroke="#D8B871" stroke-width="2.4" stroke-linecap="butt"/>
<line x1="420.7" y1="1320.4" x2="407.0" y2="1332.0" stroke="#D8B871" stroke-width="2.4" stroke-linecap="butt"/>
<line x1="408.3" y1="1304.2" x2="393.6" y2="1314.5" stroke="#D8B871" stroke-width="2.4" stroke-linecap="butt"/>
<line x1="407.7" y1="1281.0" x2="381.8" y2="1296.0" stroke="#D8B871" stroke-width="4.2" stroke-linecap="butt"/>
<line x1="387.9" y1="1268.9" x2="371.6" y2="1276.5" stroke="#D8B871" stroke-width="2.4" stroke-linecap="butt"/>
<line x1="380.1" y1="1250.0" x2="363.2" y2="1256.2" stroke="#D8B871" stroke-width="2.4" stroke-linecap="butt"/>
<line x1="374.0" y1="1230.6" x2="356.6" y2="1235.2" stroke="#D8B871" stroke-width="2.4" stroke-linecap="butt"/>
<line x1="369.6" y1="1210.6" x2="351.8" y2="1213.8" stroke="#D8B871" stroke-width="2.4" stroke-linecap="butt"/>
<line x1="366.9" y1="1190.4" x2="349.0" y2="1192.0" stroke="#D8B871" stroke-width="2.4" stroke-linecap="butt"/>
<line x1="378.0" y1="1170.0" x2="348.0" y2="1170.0" stroke="#D8B871" stroke-width="4.2" stroke-linecap="butt"/>
<line x1="366.9" y1="1149.6" x2="349.0" y2="1148.0" stroke="#D8B871" stroke-width="2.4" stroke-linecap="butt"/>
<line x1="369.6" y1="1129.4" x2="351.8" y2="1126.2" stroke="#D8B871" stroke-width="2.4" stroke-linecap="butt"/>
<line x1="374.0" y1="1109.4" x2="356.6" y2="1104.8" stroke="#D8B871" stroke-width="2.4" stroke-linecap="butt"/>
<line x1="380.1" y1="1090.0" x2="363.2" y2="1083.8" stroke="#D8B871" stroke-width="2.4" stroke-linecap="butt"/>
<line x1="387.9" y1="1071.1" x2="371.6" y2="1063.5" stroke="#D8B871" stroke-width="2.4" stroke-linecap="butt"/>
<line x1="407.7" y1="1059.0" x2="381.8" y2="1044.0" stroke="#D8B871" stroke-width="4.2" stroke-linecap="butt"/>
<line x1="408.3" y1="1035.8" x2="393.6" y2="1025.5" stroke="#D8B871" stroke-width="2.4" stroke-linecap="butt"/>
<line x1="420.7" y1="1019.6" x2="407.0" y2="1008.0" stroke="#D8B871" stroke-width="2.4" stroke-linecap="butt"/>
<line x1="434.5" y1="1004.5" x2="421.8" y2="991.8" stroke="#D8B871" stroke-width="2.4" stroke-linecap="butt"/>
<line x1="449.6" y1="990.7" x2="438.0" y2="977.0" stroke="#D8B871" stroke-width="2.4" stroke-linecap="butt"/>
<line x1="465.8" y1="978.3" x2="455.5" y2="963.6" stroke="#D8B871" stroke-width="2.4" stroke-linecap="butt"/>
<line x1="489.0" y1="977.7" x2="474.0" y2="951.8" stroke="#D8B871" stroke-width="4.2" stroke-linecap="butt"/>
<line x1="501.1" y1="957.9" x2="493.5" y2="941.6" stroke="#D8B871" stroke-width="2.4" stroke-linecap="butt"/>
<line x1="520.0" y1="950.1" x2="513.8" y2="933.2" stroke="#D8B871" stroke-width="2.4" stroke-linecap="butt"/>
<line x1="539.4" y1="944.0" x2="534.8" y2="926.6" stroke="#D8B871" stroke-width="2.4" stroke-linecap="butt"/>
<line x1="559.4" y1="939.6" x2="556.2" y2="921.8" stroke="#D8B871" stroke-width="2.4" stroke-linecap="butt"/>
<line x1="579.6" y1="936.9" x2="578.0" y2="919.0" stroke="#D8B871" stroke-width="2.4" stroke-linecap="butt"/>
<line x1="600.0" y1="948.0" x2="600.0" y2="918.0" stroke="#D8B871" stroke-width="4.2" stroke-linecap="butt"/>
<line x1="620.4" y1="936.9" x2="622.0" y2="919.0" stroke="#D8B871" stroke-width="2.4" stroke-linecap="butt"/>
<line x1="640.6" y1="939.6" x2="643.8" y2="921.8" stroke="#D8B871" stroke-width="2.4" stroke-linecap="butt"/>
<line x1="660.6" y1="944.0" x2="665.2" y2="926.6" stroke="#D8B871" stroke-width="2.4" stroke-linecap="butt"/>
<line x1="680.0" y1="950.1" x2="686.2" y2="933.2" stroke="#D8B871" stroke-width="2.4" stroke-linecap="butt"/>
<line x1="698.9" y1="957.9" x2="706.5" y2="941.6" stroke="#D8B871" stroke-width="2.4" stroke-linecap="butt"/>
<line x1="711.0" y1="977.7" x2="726.0" y2="951.8" stroke="#D8B871" stroke-width="4.2" stroke-linecap="butt"/>
<line x1="734.2" y1="978.3" x2="744.5" y2="963.6" stroke="#D8B871" stroke-width="2.4" stroke-linecap="butt"/>
<line x1="750.4" y1="990.7" x2="762.0" y2="977.0" stroke="#D8B871" stroke-width="2.4" stroke-linecap="butt"/>
<line x1="765.5" y1="1004.5" x2="778.2" y2="991.8" stroke="#D8B871" stroke-width="2.4" stroke-linecap="butt"/>
<line x1="779.3" y1="1019.6" x2="793.0" y2="1008.0" stroke="#D8B871" stroke-width="2.4" stroke-linecap="butt"/>
<line x1="791.7" y1="1035.8" x2="806.4" y2="1025.5" stroke="#D8B871" stroke-width="2.4" stroke-linecap="butt"/>
<line x1="792.3" y1="1059.0" x2="818.2" y2="1044.0" stroke="#D8B871" stroke-width="4.2" stroke-linecap="butt"/>
<line x1="812.1" y1="1071.1" x2="828.4" y2="1063.5" stroke="#D8B871" stroke-width="2.4" stroke-linecap="butt"/>
<line x1="819.9" y1="1090.0" x2="836.8" y2="1083.8" stroke="#D8B871" stroke-width="2.4" stroke-linecap="butt"/>
<line x1="826.0" y1="1109.4" x2="843.4" y2="1104.8" stroke="#D8B871" stroke-width="2.4" stroke-linecap="butt"/>
<line x1="830.4" y1="1129.4" x2="848.2" y2="1126.2" stroke="#D8B871" stroke-width="2.4" stroke-linecap="butt"/>
<line x1="833.1" y1="1149.6" x2="851.0" y2="1148.0" stroke="#D8B871" stroke-width="2.4" stroke-linecap="butt"/>
<circle cx="600.0" cy="1170.0" r="204.0" fill="none" stroke="#D8B871" stroke-width="3.6"/>
<circle cx="600.0" cy="1170.0" r="192.0" fill="none" stroke="#D8B871" stroke-width="1.8"/>
<polygon points="600.0,1338.0 454.5,1254.0 454.5,1086.0 600.0,1002.0 745.5,1086.0 745.5,1254.0" fill="none" stroke="#B4832B" stroke-width="4.8" stroke-linejoin="round"/>
<rect x="528.0" y="1227.0" width="39.0" height="33.0" rx="3.6" fill="#1C6E62"/>
<rect x="585.0" y="1200.0" width="39.0" height="60.0" rx="3.6" fill="#5C8158"/>
<rect x="642.0" y="1173.0" width="39.0" height="87.0" rx="3.6" fill="#B4832B"/>
<path d="M 516.0 1134.0 L 576.5 1189.4 L 684.0 1068.5" fill="none" stroke="#F1EBDD" stroke-width="22.5" stroke-linecap="round" stroke-linejoin="round"/>
<text x="600.0" y="1556.0" font-size="30" fill="#182530" font-weight="700" text-anchor="middle" letter-spacing="11">VERIFISERT PÅSTAND</text>
<line x1="132.0" y1="1652.0" x2="1068.0" y2="1652.0" stroke="#B4832B" stroke-width="1.5" stroke-linecap="butt"/>
<text x="132.0" y="1712.0" font-size="36" fill="#182530" font-weight="800" text-anchor="start" letter-spacing="2">STIAN SKOGBROTT</text>
</svg>
