<svg xmlns="http://www.w3.org/2000/svg" width="1600" height="720" viewBox="0 0 1600 720" font-family="Helvetica, Arial, sans-serif">
<rect x="6.0" y="6.0" width="1588.0" height="708.0" rx="22" fill="#F8F3E8" stroke="#DED4C0" stroke-width="2"/>
<rect x="60.0" y="58.0" width="6.0" height="42.0" rx="3" fill="#B4832B"/>
<text x="84.0" y="92.0" font-size="40" fill="#182530" font-weight="800" text-anchor="start">Porten, ved hver commit</text>
<line x1="60.0" y1="120.0" x2="1540.0" y2="120.0" stroke="#DED4C0" stroke-width="1.5" stroke-linecap="butt"/>
<circle cx="118.0" cy="372.0" r="60.0" fill="none" stroke="#1C6E62" stroke-width="4"/>
<text x="118.0" y="370.0" font-size="24" fill="#1C6E62" font-weight="700" text-anchor="middle">en</text>
<text x="118.0" y="398.8" font-size="24" fill="#1C6E62" font-weight="700" text-anchor="middle">påstand</text>
<line x1="204.0" y1="372.0" x2="238.0" y2="372.0" stroke="#182530" stroke-width="2" stroke-linecap="round"/>
<line x1="238.0" y1="372.0" x2="227.0" y2="378.9" stroke="#182530" stroke-width="2" stroke-linecap="round"/>
<line x1="238.0" y1="372.0" x2="227.0" y2="365.1" stroke="#182530" stroke-width="2" stroke-linecap="round"/>
<rect x="240.0" y="298.0" width="178.0" height="148.0" rx="13" fill="#182530"/>
<rect x="262.0" y="298.0" width="134.0" height="5.0" rx="0" fill="#3D6784"/>
<text x="329.0" y="364.0" font-size="27" fill="#F1EBDD" font-weight="600" text-anchor="middle">Register-</text>
<text x="329.0" y="396.4" font-size="27" fill="#F1EBDD" font-weight="600" text-anchor="middle">integritet</text>
<text x="329.0" y="426.0" font-size="20" fill="#3D6784" font-weight="800" text-anchor="middle">1</text>
<line x1="416.0" y1="372.0" x2="450.0" y2="372.0" stroke="#182530" stroke-width="2" stroke-linecap="round"/>
<line x1="450.0" y1="372.0" x2="439.0" y2="378.9" stroke="#182530" stroke-width="2" stroke-linecap="round"/>
<line x1="450.0" y1="372.0" x2="439.0" y2="365.1" stroke="#182530" stroke-width="2" stroke-linecap="round"/>
<rect x="452.0" y="298.0" width="178.0" height="148.0" rx="13" fill="#182530"/>
<rect x="474.0" y="298.0" width="134.0" height="5.0" rx="0" fill="#6B4E77"/>
<text x="541.0" y="364.0" font-size="27" fill="#F1EBDD" font-weight="600" text-anchor="middle">Artefakt-</text>
<text x="541.0" y="396.4" font-size="27" fill="#F1EBDD" font-weight="600" text-anchor="middle">eksistens</text>
<text x="541.0" y="426.0" font-size="20" fill="#6B4E77" font-weight="800" text-anchor="middle">2</text>
<line x1="628.0" y1="372.0" x2="662.0" y2="372.0" stroke="#182530" stroke-width="2" stroke-linecap="round"/>
<line x1="662.0" y1="372.0" x2="651.0" y2="378.9" stroke="#182530" stroke-width="2" stroke-linecap="round"/>
<line x1="662.0" y1="372.0" x2="651.0" y2="365.1" stroke="#182530" stroke-width="2" stroke-linecap="round"/>
<rect x="664.0" y="298.0" width="178.0" height="148.0" rx="13" fill="#182530"/>
<rect x="686.0" y="298.0" width="134.0" height="5.0" rx="0" fill="#1C6E62"/>
<text x="753.0" y="364.0" font-size="27" fill="#F1EBDD" font-weight="600" text-anchor="middle">Sti-</text>
<text x="753.0" y="396.4" font-size="27" fill="#F1EBDD" font-weight="600" text-anchor="middle">inneslutning</text>
<text x="753.0" y="426.0" font-size="20" fill="#1C6E62" font-weight="800" text-anchor="middle">3</text>
<line x1="840.0" y1="372.0" x2="874.0" y2="372.0" stroke="#182530" stroke-width="2" stroke-linecap="round"/>
<line x1="874.0" y1="372.0" x2="863.0" y2="378.9" stroke="#182530" stroke-width="2" stroke-linecap="round"/>
<line x1="874.0" y1="372.0" x2="863.0" y2="365.1" stroke="#182530" stroke-width="2" stroke-linecap="round"/>
<rect x="876.0" y="298.0" width="178.0" height="148.0" rx="13" fill="#182530"/>
<rect x="898.0" y="298.0" width="134.0" height="5.0" rx="0" fill="#B4832B"/>
<text x="965.0" y="364.0" font-size="27" fill="#F1EBDD" font-weight="600" text-anchor="middle">Proveniens</text>
<text x="965.0" y="426.0" font-size="20" fill="#B4832B" font-weight="800" text-anchor="middle">4</text>
<line x1="1052.0" y1="372.0" x2="1086.0" y2="372.0" stroke="#182530" stroke-width="2" stroke-linecap="round"/>
<line x1="1086.0" y1="372.0" x2="1075.0" y2="378.9" stroke="#182530" stroke-width="2" stroke-linecap="round"/>
<line x1="1086.0" y1="372.0" x2="1075.0" y2="365.1" stroke="#182530" stroke-width="2" stroke-linecap="round"/>
<rect x="1088.0" y="298.0" width="178.0" height="148.0" rx="13" fill="#182530"/>
<rect x="1110.0" y="298.0" width="134.0" height="5.0" rx="0" fill="#5C8158"/>
<text x="1177.0" y="364.0" font-size="27" fill="#F1EBDD" font-weight="600" text-anchor="middle">Manifest-</text>
<text x="1177.0" y="396.4" font-size="27" fill="#F1EBDD" font-weight="600" text-anchor="middle">hasher</text>
<text x="1177.0" y="426.0" font-size="20" fill="#5C8158" font-weight="800" text-anchor="middle">5</text>
<line x1="1264.0" y1="372.0" x2="1298.0" y2="372.0" stroke="#182530" stroke-width="2" stroke-linecap="round"/>
<line x1="1298.0" y1="372.0" x2="1287.0" y2="378.9" stroke="#182530" stroke-width="2" stroke-linecap="round"/>
<line x1="1298.0" y1="372.0" x2="1287.0" y2="365.1" stroke="#182530" stroke-width="2" stroke-linecap="round"/>
<rect x="1300.0" y="298.0" width="178.0" height="148.0" rx="13" fill="#182530"/>
<rect x="1322.0" y="298.0" width="134.0" height="5.0" rx="0" fill="#AE5637"/>
<text x="1389.0" y="364.0" font-size="27" fill="#F1EBDD" font-weight="600" text-anchor="middle">Dok-</text>
<text x="1389.0" y="396.4" font-size="27" fill="#F1EBDD" font-weight="600" text-anchor="middle">binding</text>
<text x="1389.0" y="426.0" font-size="20" fill="#AE5637" font-weight="800" text-anchor="middle">6</text>
<line x1="1476.0" y1="372.0" x2="1510.0" y2="372.0" stroke="#182530" stroke-width="2" stroke-linecap="round"/>
<line x1="1510.0" y1="372.0" x2="1499.0" y2="378.9" stroke="#182530" stroke-width="2" stroke-linecap="round"/>
<line x1="1510.0" y1="372.0" x2="1499.0" y2="365.1" stroke="#182530" stroke-width="2" stroke-linecap="round"/>
<circle cx="1572.0" cy="372.0" r="60.0" fill="#1C6E62"/>
<text x="1572.0" y="381.0" font-size="34" fill="#F1EBDD" font-weight="800" text-anchor="middle">OK</text>
<line x1="753.0" y1="446.0" x2="753.0" y2="500.0" stroke="#AE5637" stroke-width="2" stroke-linecap="round"/>
<line x1="753.0" y1="500.0" x2="746.6" y2="489.8" stroke="#AE5637" stroke-width="2" stroke-linecap="round"/>
<line x1="753.0" y1="500.0" x2="759.4" y2="489.8" stroke="#AE5637" stroke-width="2" stroke-linecap="round"/>
<rect x="635.0" y="510.0" width="236.0" height="74.0" rx="11" fill="none" stroke="#AE5637" stroke-width="1.6"/>
<text x="753.0" y="544.0" font-size="23" fill="#AE5637" font-weight="600" text-anchor="middle">drift</text>
<text x="753.0" y="571.6" font-size="23" fill="#AE5637" font-weight="600" text-anchor="middle">feiler bygget</text>
<text x="84.0" y="678.0" font-size="23" fill="#57636D" font-weight="500" text-anchor="start">En påstand kjører hver sjekk ved hver commit. Enhver drift, et endret tall, en brutt hash, et dokument over sin evidens, feiler bygget.</text>
</svg>
